<svg xmlns="http://www.w3.org/2000/svg" viewBox="0 0 452.43 534.87"><defs><style>.cls-1{fill:#fff;}</style></defs><g id="Calque_2" data-name="Calque 2"><g id="svg5"><path class="cls-1" d="M152.43,297.05l-38.1-66H79l62.1,74A137.43,137.43,0,0,1,152.43,297.05Z"></path><path class="cls-1" d="M133.41,311.51,65.9,231.05h-18l0,26.79,75.7,63.52Q128.26,316.2,133.41,311.51Z"></path><path class="cls-1" d="M267.46,282.57l18.75-51.52H262.43L254,279A134.94,134.94,0,0,1,267.46,282.57Z"></path><path class="cls-1" d="M117.19,329,47.92,270.9,48,305l61.28,35.39A137.21,137.21,0,0,1,117.19,329Z"></path><path class="cls-1" d="M173.67,286.1l-20-55.05H125.87l35.2,61A135.26,135.26,0,0,1,173.67,286.1Z"></path><path class="cls-1" d="M89.69,394.34,48,387l0,21.17H88.51A137.15,137.15,0,0,1,89.69,394.34Z"></path><path class="cls-1" d="M355.61,455.3l21.32,7.76,20.27-11.83a11.68,11.68,0,0,0,2.69-2.19l-40.65-7.17A136.85,136.85,0,0,1,355.61,455.3Z"></path><path class="cls-1" d="M88.53,418.17H48.05v19.06a11.91,11.91,0,0,0,.21,2.07L89.76,432C89.13,427.44,88.71,422.84,88.53,418.17Z"></path><path class="cls-1" d="M104.24,349.08,48,316.59l0,26.74,50.4,18.34A134.62,134.62,0,0,1,104.24,349.08Z"></path><path class="cls-1" d="M95,371.07,48,354l0,22.87,43.39,7.65A133.69,133.69,0,0,1,95,371.07Z"></path><path class="cls-1" d="M289.48,291.91l35.13-60.86H296.85l-20,54.95A135.72,135.72,0,0,1,289.48,291.91Z"></path><path class="cls-1" d="M196.51,279l-8.45-48H164.28l18.78,51.6A137.24,137.24,0,0,1,196.51,279Z"></path><path class="cls-1" d="M361,432l42,7.4V418.17H362.23A137.49,137.49,0,0,1,361,432Z"></path><path class="cls-1" d="M91.51,441.83,55.36,448.2l22.13,13.43,17.62-6.42A135.77,135.77,0,0,1,91.51,441.83Z"></path><path class="cls-1" d="M361.07,394.3a137.45,137.45,0,0,1,1.18,13.87H403l0-21.26Z"></path><path class="cls-1" d="M206.36,277.28a135,135,0,0,1,13.88-1.22v-45h-22Z"></path><path class="cls-1" d="M352.15,464.68a136.46,136.46,0,0,1-9,18.11l22.58-13.18Z"></path><path class="cls-1" d="M88.45,468.28l16.66,10.1a135.75,135.75,0,0,1-6.54-13.78Z"></path><path class="cls-1" d="M352.35,361.59l50.55-18.4,0-26.8L346.46,349A134.38,134.38,0,0,1,352.35,361.59Z"></path><path class="cls-1" d="M341.45,340.3l61.42-35.46,0-34.16-69.38,58.21A137.15,137.15,0,0,1,341.45,340.3Z"></path><path class="cls-1" d="M327,321.23l75.8-63.6,0-26.58H384.58l-67.39,80.32A136.61,136.61,0,0,1,327,321.23Z"></path><path class="cls-1" d="M309.54,304.93l62-73.88H336.16l-38,65.88Q304,300.65,309.54,304.93Z"></path><path class="cls-1" d="M359.35,384.45l43.58-7.69,0-22.94L355.77,371A137.43,137.43,0,0,1,359.35,384.45Z"></path><path class="cls-1" d="M230.24,276.05a137.84,137.84,0,0,1,13.89,1.19l8.15-46.19h-22Z"></path><polygon class="cls-1" points="402.58 129.88 402.56 116.04 394.57 129.88 402.58 129.88"></polygon><polygon class="cls-1" points="323.03 129.88 344.92 69.75 296.1 40.13 280.27 129.88 323.03 129.88"></polygon><polygon class="cls-1" points="127.46 129.88 170.22 129.88 154.1 38.5 104.69 67.34 127.46 129.88"></polygon><polygon class="cls-1" points="47.65 115.56 47.66 129.88 55.91 129.88 47.65 115.56"></polygon><path class="cls-1" d="M180.37,129.88h39.87V0a11,11,0,0,0-1.14.57L163.31,33.13Z"></path><path class="cls-1" d="M67.46,129.88h49.35L95.92,72.46l-42.5,24.8A11.52,11.52,0,0,0,50.23,100Z"></path><path class="cls-1" d="M230.24,129.88h39.88l16.8-95.31L231,.67c-.25-.16-.51-.27-.78-.41Z"></path><path class="cls-1" d="M333.67,129.88H383l15.71-27.21a11.4,11.4,0,0,0-1.79-1.36L353.64,75Z"></path><path class="cls-1" d="M144.42,372.49l40.87,19.62c8.35-6.51,26.61-19.76,35.28-25.61V323.38c-8.26-5.56-26.31-18.79-35.23-25.67a122.3,122.3,0,0,0-51,34.11C137.25,342.47,142.34,362.62,144.42,372.49Z"></path><path class="cls-1" d="M230.57,323v43.9c8.93,6.07,26.71,19,34.83,25.4l40.81-19.59c2.09-10,7.06-30.61,9.91-41.18a122.17,122.17,0,0,0-51.45-34.07C256.14,304.11,239.14,317.17,230.57,323Z"></path><path class="cls-1" d="M275.34,486.07,247.08,448.5c-10.36.34-32.33.31-43.07-.06l-28.5,37.89c3.24,9.86,9.77,32,12.57,42.7a122,122,0,0,0,74.22.12C265.15,518.39,272.1,495.86,275.34,486.07Z"></path><path class="cls-1" d="M127.46,478.64c11.45.07,30.87.67,40.35,1.29l27.92-37.11c-3.54-9.71-10.32-30.63-13.31-41l-41.13-19.74c-8.4,5.58-28,17.56-37.61,23.05-.16,2.57-.26,5.16-.26,7.77a121.23,121.23,0,0,0,19.3,65.77Z"></path><path class="cls-1" d="M309.53,382.2l-41.39,19.86c-2.94,10.23-9.53,30.51-13.11,40.37l28.2,37.49c9.57-.62,28.73-1.21,40.07-1.28,1.1,0,3.17-.14,4.92-.25a121.17,121.17,0,0,0,19.12-65.48c0-2.55-.09-5.09-.25-7.61C337.48,399.79,318,387.79,309.53,382.2Z"></path><path class="cls-1" d="M54.29,206.11l-4-29.9-13.77,30H32.25l-13.76-30-4,29.88H0L7.85,154.2H22.13l12.23,28.25,12.3-28.25H60.94l7.78,51.91Z"></path><path class="cls-1" d="M107.35,197.68H89l-2.88,8.43H70.75L91.14,154.2h14L126,206.11H110.21ZM98.12,170.4l-5.69,16.09h11.43Z"></path><path class="cls-1" d="M145.38,167.14v8.26h16.68v12.52H145.38v18.19H131V154.2h33v12.94Z"></path><path class="cls-1" d="M171.6,154.2h14.49v51.91H171.6Z"></path><path class="cls-1" d="M227.71,197.68h-18.4l-2.88,8.43H191.11L211.5,154.2h14l20.84,51.91H230.57Zm-9.23-27.28-5.69,16.09h11.43Z"></path><path class="cls-1" d="M265.74,167.14v8.26h16.68v12.52H265.74v18.19H251.32V154.2h33v12.94Z"></path><path class="cls-1" d="M317.32,207.42c-16.69,0-28.6-11.4-28.6-27.26s11.91-27.27,28.6-27.27,28.51,11.36,28.51,27.27S334,207.42,317.32,207.42Zm0-13.3c7.9,0,13.62-5.84,13.62-14s-5.72-14-13.62-14-13.71,5.87-13.71,14,5.81,14,13.71,14Z"></path><path class="cls-1" d="M379,207.42c-16.69,0-28.6-11.4-28.6-27.26s11.91-27.27,28.6-27.27,28.51,11.36,28.51,27.27S395.66,207.42,379,207.42Zm0-13.3c7.9,0,13.62-5.84,13.62-14s-5.72-14-13.62-14-13.71,5.87-13.71,14,5.81,14,13.71,14Z"></path><path class="cls-1" d="M452.43,167.08h-14.1v39H424v-39h-14.1V154.2h42.56Z"></path></g></g></svg>